HIERARCHY
ROOT mixamorig:Hips
{
	OFFSET 0.000000 35.069874 -0.029489
	CHANNELS 6 Xposition Yposition Zposition Xrotation Yrotation Zrotation
	JOINT mixamorig:Spine
	{
		OFFSET 0.000000 6.876060 0.125662
		CHANNELS 3 Xrotation Yrotation Zrotation
		JOINT mixamorig:Spine1
		{
			OFFSET 0.000000 8.022060 0.146603
			CHANNELS 3 Xrotation Yrotation Zrotation
			JOINT mixamorig:Spine2
			{
				OFFSET 0.000000 9.168079 0.167547
				CHANNELS 3 Xrotation Yrotation Zrotation
				JOINT mixamorig:Neck
				{
					OFFSET 0.000000 10.314075 0.188489
					CHANNELS 3 Xrotation Yrotation Zrotation
					JOINT mixamorig:Head
					{
						OFFSET 0.000000 7.643753 -2.377445
						CHANNELS 3 Xrotation Yrotation Zrotation
						JOINT mixamorig:HeadTop_End
						{
							OFFSET 0.000000 43.788605 -13.619637
							CHANNELS 3 Xrotation Yrotation Zrotation
							End Site
							{
								OFFSET 0.000000 45.857788 0.000000
							}
						}
					}
				}
				JOINT mixamorig:LeftShoulder
				{
					OFFSET 4.392187 8.825001 0.174995
					CHANNELS 3 Xrotation Yrotation Zrotation
					JOINT mixamorig:LeftArm
					{
						OFFSET 8.774866 -2.970879 -0.026997
						CHANNELS 3 Xrotation Yrotation Zrotation
						JOINT mixamorig:LeftForeArm
						{
							OFFSET 8.450586 -0.797432 -0.648343
							CHANNELS 3 Xrotation Yrotation Zrotation
							JOINT mixamorig:LeftHand
							{
								OFFSET 18.458662 0.962311 0.193148
								CHANNELS 3 Xrotation Yrotation Zrotation
								JOINT mixamorig:LeftHandThumb1
								{
									OFFSET 2.379990 -1.333382 2.680594
									CHANNELS 3 Xrotation Yrotation Zrotation
									JOINT mixamorig:LeftHandThumb2
									{
										OFFSET 1.903984 -1.066746 2.144473
										CHANNELS 3 Xrotation Yrotation Zrotation
										JOINT mixamorig:LeftHandThumb3
										{
											OFFSET 0.966393 -1.489639 2.964555
											CHANNELS 3 Xrotation Yrotation Zrotation
											JOINT mixamorig:LeftHandThumb4
											{
												OFFSET 1.205181 -0.823021 1.625701
												CHANNELS 3 Xrotation Yrotation Zrotation
												End Site
												{
													OFFSET 1.050617 -0.818157 1.731923
												}
											}
										}
									}
								}
								JOINT mixamorig:LeftHandIndex1
								{
									OFFSET 7.830624 -0.787468 2.563931
									CHANNELS 3 Xrotation Yrotation Zrotation
									JOINT mixamorig:LeftHandIndex2
									{
										OFFSET 3.312897 -0.052605 1.515312
										CHANNELS 3 Xrotation Yrotation Zrotation
										JOINT mixamorig:LeftHandIndex3
										{
											OFFSET 3.460667 -0.207008 1.581951
											CHANNELS 3 Xrotation Yrotation Zrotation
											JOINT mixamorig:LeftHandIndex4
											{
												OFFSET 2.183182 0.110458 0.999585
												CHANNELS 3 Xrotation Yrotation Zrotation
												End Site
												{
													OFFSET 2.183868 0.110451 0.998074
												}
											}
										}
									}
								}
								JOINT mixamorig:LeftHandMiddle1
								{
									OFFSET 8.556145 -0.261200 0.258753
									CHANNELS 3 Xrotation Yrotation Zrotation
									JOINT mixamorig:LeftHandMiddle2
									{
										OFFSET 3.828903 -0.489014 -0.111505
										CHANNELS 3 Xrotation Yrotation Zrotation
										JOINT mixamorig:LeftHandMiddle3
										{
											OFFSET 3.696209 -0.166595 -0.107596
											CHANNELS 3 Xrotation Yrotation Zrotation
											JOINT mixamorig:LeftHandMiddle4
											{
												OFFSET 2.259281 0.534500 -0.065675
												CHANNELS 3 Xrotation Yrotation Zrotation
												End Site
												{
													OFFSET 2.259735 0.534134 -0.051267
												}
											}
										}
									}
								}
								JOINT mixamorig:LeftHandRing1
								{
									OFFSET 8.509293 -0.556679 -3.044941
									CHANNELS 3 Xrotation Yrotation Zrotation
									JOINT mixamorig:LeftHandRing2
									{
										OFFSET 2.995171 -0.303261 -0.843591
										CHANNELS 3 Xrotation Yrotation Zrotation
										JOINT mixamorig:LeftHandRing3
										{
											OFFSET 2.968273 -0.101997 -0.834287
											CHANNELS 3 Xrotation Yrotation Zrotation
											JOINT mixamorig:LeftHandRing4
											{
												OFFSET 1.521358 -0.461468 -0.418735
												CHANNELS 3 Xrotation Yrotation Zrotation
												End Site
												{
													OFFSET 1.516514 -0.460747 -0.436712
												}
											}
										}
									}
								}
							}
						}
					}
				}
				JOINT mixamorig:RightShoulder
				{
					OFFSET -4.392150 8.825024 0.141388
					CHANNELS 3 Xrotation Yrotation Zrotation
					JOINT mixamorig:RightArm
					{
						OFFSET -8.774886 -2.970947 -0.094209
						CHANNELS 3 Xrotation Yrotation Zrotation
						JOINT mixamorig:RightForeArm
						{
							OFFSET -8.450586 -0.797386 -0.330665
							CHANNELS 3 Xrotation Yrotation Zrotation
							JOINT mixamorig:RightHand
							{
								OFFSET -18.458664 0.962341 0.025780
								CHANNELS 3 Xrotation Yrotation Zrotation
								JOINT mixamorig:RightHandThumb1
								{
									OFFSET -2.390282 -1.240040 2.604684
									CHANNELS 3 Xrotation Yrotation Zrotation
									JOINT mixamorig:RightHandThumb2
									{
										OFFSET -1.912228 -0.992111 2.083740
										CHANNELS 3 Xrotation Yrotation Zrotation
										JOINT mixamorig:RightHandThumb3
										{
											OFFSET -0.876358 -1.555370 2.930126
											CHANNELS 3 Xrotation Yrotation Zrotation
											JOINT mixamorig:RightHandThumb4
											{
												OFFSET -1.227077 -0.755932 1.835223
												CHANNELS 3 Xrotation Yrotation Zrotation
												End Site
												{
													OFFSET -1.124962 -0.750702 1.901603
												}
											}
										}
									}
								}
								JOINT mixamorig:RightHandIndex1
								{
									OFFSET -8.716801 -0.633743 3.098187
									CHANNELS 3 Xrotation Yrotation Zrotation
									JOINT mixamorig:RightHandIndex2
									{
										OFFSET -3.319706 -0.240585 1.198087
										CHANNELS 3 Xrotation Yrotation Zrotation
										JOINT mixamorig:RightHandIndex3
										{
											OFFSET -3.153255 -0.154724 1.138827
											CHANNELS 3 Xrotation Yrotation Zrotation
											JOINT mixamorig:RightHandIndex4
											{
												OFFSET -1.818684 -0.003197 0.655154
												CHANNELS 3 Xrotation Yrotation Zrotation
												End Site
												{
													OFFSET -1.818668 -0.003197 0.655188
												}
											}
										}
									}
								}
								JOINT mixamorig:RightHandMiddle1
								{
									OFFSET -8.158691 -0.528496 0.196552
									CHANNELS 3 Xrotation Yrotation Zrotation
									JOINT mixamorig:RightHandMiddle2
									{
										OFFSET -3.890194 -0.261169 -0.136423
										CHANNELS 3 Xrotation Yrotation Zrotation
										JOINT mixamorig:RightHandMiddle3
										{
											OFFSET -3.903057 -0.179909 -0.137173
											CHANNELS 3 Xrotation Yrotation Zrotation
											JOINT mixamorig:RightHandMiddle4
											{
												OFFSET -2.366261 0.198380 -0.083987
												CHANNELS 3 Xrotation Yrotation Zrotation
												End Site
												{
													OFFSET -2.366409 0.198326 -0.079799
												}
											}
										}
									}
								}
								JOINT mixamorig:RightHandRing1
								{
									OFFSET -7.616104 -0.395126 -2.681268
									CHANNELS 3 Xrotation Yrotation Zrotation
									JOINT mixamorig:RightHandRing2
									{
										OFFSET -3.235790 -0.462120 -1.101476
										CHANNELS 3 Xrotation Yrotation Zrotation
										JOINT mixamorig:RightHandRing3
										{
											OFFSET -3.179264 -0.138618 -1.084847
											CHANNELS 3 Xrotation Yrotation Zrotation
											JOINT mixamorig:RightHandRing4
											{
												OFFSET -1.963291 -0.101624 -0.668250
												CHANNELS 3 Xrotation Yrotation Zrotation
												End Site
												{
													OFFSET -1.963745 -0.101669 -0.666919
												}
											}
										}
									}
								}
							}
						}
					}
				}
			}
		}
	}
	JOINT mixamorig:LeftUpLeg
	{
		OFFSET 10.205382 -3.823519 0.155145
		CHANNELS 3 Xrotation Yrotation Zrotation
		JOINT mixamorig:LeftLeg
		{
			OFFSET 0.283732 -12.998343 0.567794
			CHANNELS 3 Xrotation Yrotation Zrotation
			JOINT mixamorig:LeftFoot
			{
				OFFSET -1.058953 -10.688869 -2.184322
				CHANNELS 3 Xrotation Yrotation Zrotation
				JOINT mixamorig:LeftToeBase
				{
					OFFSET 0.108145 -7.191069 7.560211
					CHANNELS 3 Xrotation Yrotation Zrotation
					JOINT mixamorig:LeftToe_End
					{
						OFFSET 0.070226 0.081726 4.490266
						CHANNELS 3 Xrotation Yrotation Zrotation
						End Site
						{
							OFFSET 0.070226 0.081726 4.490267
						}
					}
				}
			}
		}
	}
	JOINT mixamorig:RightUpLeg
	{
		OFFSET -10.205383 -3.823513 0.005508
		CHANNELS 3 Xrotation Yrotation Zrotation
		JOINT mixamorig:RightLeg
		{
			OFFSET -0.283728 -12.998341 0.610627
			CHANNELS 3 Xrotation Yrotation Zrotation
			JOINT mixamorig:RightFoot
			{
				OFFSET 1.058956 -10.688892 -1.945833
				CHANNELS 3 Xrotation Yrotation Zrotation
				JOINT mixamorig:RightToeBase
				{
					OFFSET -0.108150 -7.191040 7.372945
					CHANNELS 3 Xrotation Yrotation Zrotation
					JOINT mixamorig:RightToe_End
					{
						OFFSET -0.070229 0.081738 4.479398
						CHANNELS 3 Xrotation Yrotation Zrotation
						End Site
						{
							OFFSET -0.070229 0.081738 4.479399
						}
					}
				}
			}
		}
	}
}
MOTION
Frames: 4
Frame Time: 0.016667
-0.118825 25.248728 0.303914 0.239283 -27.846370 6.042048 14.694170 -5.305469 2.042115 6.060948 -0.559073 3.030115 6.085661 -0.503095 2.989443 -5.483768 4.321529 2.474432 -18.110448 28.209612 -12.379229 -0.000000 -0.000000 0.000000 0.901745 -10.161935 3.284239 38.685444 -35.507763 -78.325672 -7.414399 -52.725444 -11.956496 -12.728437 5.711432 8.999497 8.333618 24.351376 1.939195 1.262741 30.876399 11.548883 -1.902105 -11.818050 -6.141477 -0.000001 -0.000000 -0.000001 3.578070 23.511014 -7.201656 4.380021 1.491655 -9.205534 9.813720 0.837080 -20.972692 -0.000002 0.000002 0.000000 -0.207414 -2.172322 -1.946987 0.262745 3.236218 -24.481090 -0.030681 4.339943 -40.873150 -0.000002 0.000002 -0.000000 -2.596318 -15.604277 -6.192544 -6.713387 7.235007 -31.139755 -3.295406 7.006600 -19.671454 -0.000001 0.000004 -0.000002 -1.089500 -14.110088 -0.401373 48.627825 -17.231341 58.527802 -13.604537 67.814284 17.493375 -13.236941 -4.118410 -12.859826 9.865395 -22.361411 0.303041 -0.244928 -32.774222 -13.776031 1.981328 12.875194 7.686755 0.000001 0.000000 0.000001 1.311773 -18.440944 0.220740 4.800114 -1.050183 12.704147 7.037123 -1.036685 18.796018 -0.000002 -0.000003 0.000001 -0.297646 2.749550 3.921058 -0.096552 -2.446943 16.912136 -0.226495 -3.408803 28.729094 0.000002 0.000001 0.000001 -3.352587 18.413676 4.816963 -6.915190 -5.232970 23.928734 -6.828017 -6.440413 24.041909 0.000004 -0.000002 0.000000 32.748985 5.865761 7.484186 26.052906 -11.810657 -1.231578 -54.655461 -5.372925 -4.046757 -14.854412 -0.000031 0.000010 -0.000001 0.000000 -0.000000 -79.761808 -20.409807 -13.320339 40.361903 8.311408 -9.899458 38.320291 26.319652 -10.972112 -3.406416 0.000001 0.000015 0.000000 0.000003 0.000000 
0.167760 25.021914 0.064060 0.121372 -28.020784 5.747181 15.314333 -5.387190 2.439758 5.909220 -0.579106 2.968130 5.933213 -0.522800 2.929176 -5.689163 4.328635 2.801035 -18.205589 28.650021 -12.654466 -0.000000 -0.000000 -0.000000 1.095555 -9.912043 4.235027 38.125225 -34.473286 -77.309805 -7.051663 -51.287532 -11.669160 -12.302002 4.619536 8.939373 8.311987 23.233180 1.922538 1.234293 30.317792 11.548291 -1.973546 -12.088832 -6.158575 0.000003 0.000003 0.000002 3.166908 23.423808 -6.245880 5.059438 1.606352 -10.614366 9.984783 0.833869 -21.332607 -0.000001 -0.000000 -0.000002 -0.204749 -2.286158 -1.248189 0.284765 3.307438 -24.933013 -0.009131 4.404613 -41.267801 0.000002 0.000002 -0.000000 -2.476918 -15.704275 -5.686130 -6.594456 6.983843 -30.317871 -3.347986 7.090562 -20.014440 0.000001 0.000002 -0.000004 -0.948785 -14.473019 0.501591 46.464237 -16.233632 58.082583 -12.626298 66.290975 16.591230 -12.929925 -3.766185 -12.879811 9.873661 -22.480823 0.305823 -0.241729 -32.833935 -13.776587 1.989800 12.846513 7.686585 0.000002 0.000001 -0.000002 1.111838 -18.370946 -0.354260 5.154817 -1.094823 13.621928 7.290628 -1.043626 19.458572 -0.000000 0.000002 -0.000001 -0.295078 2.777014 3.743885 -0.085609 -2.537650 17.496341 -0.213298 -3.473613 29.140312 0.000002 0.000000 -0.000000 -3.434309 18.355840 5.105785 -6.941471 -5.269703 24.043046 -6.834886 -6.450120 24.072068 -0.000001 -0.000001 -0.000001 33.025331 5.238824 7.017981 26.444867 -11.547044 -1.397943 -56.881822 -4.349813 -3.171600 -11.244415 -0.000034 0.000006 -0.000000 0.000003 0.000000 -80.288887 -19.346740 -12.879609 41.758223 8.492791 -9.965535 37.379774 24.743340 -9.666872 -3.598267 -0.000007 0.000011 0.000001 0.000000 -0.000000 
0.412778 25.028284 -0.124302 0.188297 -28.142200 5.543653 15.818156 -5.420497 2.821448 5.621834 -0.608631 2.977808 5.646188 -0.550230 2.941533 -5.545663 4.322739 2.933054 -18.291262 28.891044 -12.932105 -0.000000 0.000000 0.000000 1.225727 -9.842692 4.193710 37.580917 -32.089926 -76.274293 -6.836286 -50.388474 -11.501289 -11.970047 4.051234 8.961697 8.300596 22.648287 1.913698 1.219463 30.025611 11.547841 -2.010950 -12.230463 -6.167622 0.000000 -0.000001 -0.000000 2.597241 23.291828 -4.916452 5.515954 1.673798 -11.558553 10.231862 0.827338 -21.852529 -0.000006 -0.000000 -0.000001 -0.201262 -2.386425 -0.632558 0.294752 3.339116 -25.134382 0.015227 4.475987 -41.704459 -0.000003 0.000001 0.000002 -2.506293 -15.679857 -5.810374 -6.482311 6.755173 -29.564587 -3.383315 7.147561 -20.246521 0.000001 0.000001 -0.000001 -0.770065 -14.524174 1.447908 44.525593 -15.275862 57.701950 -11.867920 64.963070 15.899275 -12.667883 -3.706401 -12.910730 9.877971 -22.543074 0.307255 -0.240031 -32.865084 -13.776850 1.994213 12.831530 7.686532 -0.000001 0.000003 0.000000 0.876791 -18.285823 -1.032652 5.367355 -1.118817 14.171086 7.546651 -1.047662 20.127569 -0.000001 -0.000003 0.000000 -0.293025 2.798410 3.605789 -0.078497 -2.592857 17.852323 -0.199378 -3.539752 29.560526 -0.000001 -0.000001 0.000002 -3.577182 18.253209 5.613089 -6.961579 -5.297947 24.130841 -6.845662 -6.465301 24.119196 0.000001 -0.000004 0.000000 32.460819 4.737637 6.549912 27.329149 -11.267145 -1.393771 -57.955658 -3.995714 -2.245527 -9.730847 -0.000031 0.000009 0.000001 -0.000002 0.000000 -80.393464 -18.965550 -12.429548 43.671888 8.660065 -10.106083 35.442634 23.205170 -8.892960 -3.881734 -0.000009 0.000007 0.000000 0.000001 -0.000000 
0.598679 25.192196 -0.251477 0.383790 -28.195038 5.423117 16.215627 -5.435554 3.182202 5.273280 -0.643252 3.030543 5.298657 -0.582018 2.997237 -5.200760 4.310266 2.919933 -18.361512 28.977341 -13.195694 -0.000000 -0.000000 0.000000 1.299713 -9.842370 3.480813 36.886017 -28.881936 -75.197569 -6.719226 -49.884713 -11.410900 -11.707826 3.844677 9.031252 8.296361 22.430826 1.910368 1.214007 29.917007 11.547656 -2.024908 -12.283110 -6.171049 -0.000002 -0.000005 -0.000000 1.945364 23.124623 -3.386850 5.818112 1.714224 -12.182577 10.510007 0.817270 -22.437994 -0.000003 0.000003 0.000000 -0.197278 -2.475064 -0.087967 0.297535 3.347841 -25.189914 0.039441 4.545238 -42.129392 -0.000001 0.000000 -0.000001 -2.630172 -15.575575 -6.336892 -6.383094 6.558838 -28.913891 -3.402453 7.178694 -20.373047 -0.000000 0.000001 -0.000001 -0.575620 -14.371970 2.417964 42.697719 -14.234600 57.329084 -11.254089 63.778838 15.344857 -12.436944 -3.864391 -12.941251 9.878985 -22.557465 0.307604 -0.239636 -32.872280 -13.776915 1.995229 12.828074 7.686530 0.000002 0.000000 0.000000 0.625561 -18.191442 -1.760812 5.492275 -1.131958 14.493649 7.791393 -1.048725 20.767059 -0.000001 0.000001 -0.000001 -0.291237 2.816742 3.487421 -0.073808 -2.627667 18.076922 -0.185534 -3.603165 29.964221 0.000004 0.000001 0.000000 -3.749119 18.127088 6.227837 -6.982085 -5.326828 24.220477 -6.857563 -6.482097 24.171341 -0.000001 0.000001 -0.000002 31.248399 4.374075 6.233158 28.635250 -11.137739 -1.314294 -58.037668 -3.992120 -1.596049 -9.868136 -0.000052 0.000006 -0.000001 0.000000 0.000000 -80.247373 -19.025543 -12.003833 46.194581 8.708561 -10.345766 32.607791 21.789284 -8.537082 -4.233961 -0.000013 0.000008 0.000000 0.000001 0.000000 
